<svg width="245" height="190" viewBox="0 0 245 190" fill="none" xmlns="http://www.w3.org/2000/svg">
<g filter="url(#filter0_d_85_136)">
<rect x="40" y="40" width="165" height="110" rx="20" fill="url(#paint0_linear_85_136)"/>
</g>
<path d="M108.117 96.0578L118.424 90.1617L116.6 87.0303L106.067 93.0557C105.662 92.5555 105.235 92.073 104.789 91.6095L113.478 83.0001L110.898 80.4433L102.061 89.1992C101.568 88.8301 101.06 88.4806 100.536 88.152L106.83 77.3508L103.67 75.5429L97.3031 86.469C96.7539 86.2375 96.1935 86.027 95.6229 85.8386L98.9329 73.5989L95.4079 72.6631L92.0773 84.9789C91.5001 84.8876 90.9156 84.818 90.3247 84.771V72H86.6753V84.771C86.0844 84.818 85.4999 84.8876 84.9227 84.9789L81.5921 72.6631L78.0671 73.5989L81.3771 85.8386C80.8065 86.027 80.2461 86.2375 79.6969 86.469L73.3302 75.5429L70.1698 77.3508L76.4637 88.152C75.9405 88.4806 75.4319 88.8301 74.9392 89.1992L66.1022 80.4433L63.5217 83.0001L72.2109 91.6095C71.7647 92.073 71.3384 92.5555 70.9335 93.0557L60.4005 87.0303L58.5758 90.1617L68.8829 96.0578C68.5486 96.645 68.2403 97.2486 67.9597 97.8672L56.6137 94.855L55.6692 98.3477L66.7375 101.286C66.5543 101.973 66.4033 102.673 66.2863 103.384H55V107H122V103.384H110.714C110.597 102.673 110.446 101.973 110.263 101.286L121.331 98.3477L120.386 94.855L109.04 97.8672C108.76 97.2486 108.451 96.645 108.117 96.0578Z" fill="#CFD307"/>
<path d="M56.462 116.964H60.134C60.78 116.964 61.3693 117.032 61.902 117.168C62.4347 117.293 62.888 117.491 63.262 117.763C63.636 118.035 63.925 118.381 64.129 118.8C64.333 119.219 64.435 119.724 64.435 120.313C64.435 120.914 64.3217 121.429 64.095 121.86C63.8797 122.291 63.5737 122.642 63.177 122.914C62.7917 123.186 62.327 123.39 61.783 123.526C61.2503 123.651 60.6723 123.713 60.049 123.713H58.145V129H56.462V116.964ZM58.145 122.285H59.93C60.338 122.285 60.712 122.251 61.052 122.183C61.4033 122.104 61.7037 121.99 61.953 121.843C62.2023 121.684 62.395 121.48 62.531 121.231C62.667 120.982 62.735 120.676 62.735 120.313C62.735 119.95 62.6613 119.65 62.514 119.412C62.378 119.163 62.1853 118.964 61.936 118.817C61.698 118.658 61.409 118.551 61.069 118.494C60.729 118.426 60.3607 118.392 59.964 118.392H58.145V122.285ZM65.7071 122.676C65.7071 122.461 65.7014 122.183 65.6901 121.843C65.6787 121.503 65.6617 121.203 65.6391 120.942H67.1521C67.1747 121.146 67.1917 121.384 67.2031 121.656C67.2144 121.917 67.2201 122.132 67.2201 122.302H67.2711C67.4977 121.826 67.8264 121.446 68.2571 121.163C68.6991 120.868 69.1921 120.721 69.7361 120.721C69.9854 120.721 70.1951 120.744 70.3651 120.789L70.2971 122.268C70.0704 122.211 69.8267 122.183 69.5661 122.183C69.1807 122.183 68.8464 122.257 68.5631 122.404C68.2797 122.54 68.0417 122.727 67.8491 122.965C67.6677 123.203 67.5317 123.481 67.4411 123.798C67.3504 124.104 67.3051 124.427 67.3051 124.767V129H65.7071V122.676ZM79.7274 124.954C79.7274 125.577 79.6141 126.15 79.3874 126.671C79.1721 127.192 78.8661 127.646 78.4694 128.031C78.0841 128.405 77.6251 128.7 77.0924 128.915C76.5598 129.119 75.9874 129.221 75.3754 129.221C74.7634 129.221 74.1911 129.119 73.6584 128.915C73.1258 128.7 72.6668 128.405 72.2814 128.031C71.8961 127.646 71.5901 127.192 71.3634 126.671C71.1481 126.15 71.0404 125.577 71.0404 124.954C71.0404 124.331 71.1481 123.764 71.3634 123.254C71.5901 122.733 71.8961 122.285 72.2814 121.911C72.6668 121.537 73.1258 121.248 73.6584 121.044C74.1911 120.829 74.7634 120.721 75.3754 120.721C75.9874 120.721 76.5598 120.829 77.0924 121.044C77.6251 121.248 78.0841 121.537 78.4694 121.911C78.8661 122.285 79.1721 122.733 79.3874 123.254C79.6141 123.764 79.7274 124.331 79.7274 124.954ZM78.0614 124.954C78.0614 124.569 77.9991 124.2 77.8744 123.849C77.7611 123.498 77.5911 123.192 77.3644 122.931C77.1378 122.659 76.8544 122.444 76.5144 122.285C76.1858 122.126 75.8061 122.047 75.3754 122.047C74.9448 122.047 74.5594 122.126 74.2194 122.285C73.8908 122.444 73.6131 122.659 73.3864 122.931C73.1598 123.192 72.9841 123.498 72.8594 123.849C72.7461 124.2 72.6894 124.569 72.6894 124.954C72.6894 125.339 72.7461 125.708 72.8594 126.059C72.9841 126.41 73.1598 126.722 73.3864 126.994C73.6131 127.266 73.8908 127.481 74.2194 127.64C74.5594 127.799 74.9448 127.878 75.3754 127.878C75.8061 127.878 76.1858 127.799 76.5144 127.64C76.8544 127.481 77.1378 127.266 77.3644 126.994C77.5911 126.722 77.7611 126.41 77.8744 126.059C77.9991 125.708 78.0614 125.339 78.0614 124.954ZM82.5724 130.377C82.9237 130.774 83.3601 131.091 83.8814 131.329C84.4141 131.567 84.9581 131.686 85.5134 131.686C86.0461 131.686 86.4937 131.607 86.8564 131.448C87.2191 131.301 87.5081 131.091 87.7234 130.819C87.9501 130.558 88.1087 130.247 88.1994 129.884C88.3014 129.521 88.3524 129.13 88.3524 128.711V127.674H88.3184C88.0237 128.127 87.6214 128.473 87.1114 128.711C86.6014 128.949 86.0574 129.068 85.4794 129.068C84.8674 129.068 84.3064 128.96 83.7964 128.745C83.2977 128.53 82.8727 128.235 82.5214 127.861C82.1701 127.487 81.8981 127.051 81.7054 126.552C81.5127 126.042 81.4164 125.498 81.4164 124.92C81.4164 124.342 81.5127 123.798 81.7054 123.288C81.8981 122.778 82.1701 122.336 82.5214 121.962C82.8727 121.577 83.2977 121.276 83.7964 121.061C84.2951 120.834 84.8504 120.721 85.4624 120.721C86.0404 120.721 86.5901 120.846 87.1114 121.095C87.6441 121.344 88.0634 121.724 88.3694 122.234H88.4034V120.942H89.9504V128.592C89.9504 129.181 89.8767 129.742 89.7294 130.275C89.5821 130.819 89.3327 131.295 88.9814 131.703C88.6301 132.122 88.1711 132.457 87.6044 132.706C87.0377 132.955 86.3351 133.08 85.4964 133.08C84.7937 133.08 84.0854 132.95 83.3714 132.689C82.6687 132.44 82.0624 132.083 81.5524 131.618L82.5724 130.377ZM83.0654 124.886C83.0654 125.26 83.1221 125.617 83.2354 125.957C83.3601 126.297 83.5357 126.597 83.7624 126.858C84.0004 127.119 84.2837 127.328 84.6124 127.487C84.9411 127.646 85.3151 127.725 85.7344 127.725C86.1424 127.725 86.5164 127.651 86.8564 127.504C87.1964 127.357 87.4854 127.158 87.7234 126.909C87.9614 126.648 88.1427 126.348 88.2674 126.008C88.4034 125.657 88.4714 125.283 88.4714 124.886C88.4714 124.501 88.4034 124.138 88.2674 123.798C88.1427 123.458 87.9557 123.158 87.7064 122.897C87.4684 122.636 87.1794 122.432 86.8394 122.285C86.5107 122.126 86.1424 122.047 85.7344 122.047C85.3151 122.047 84.9411 122.126 84.6124 122.285C84.2837 122.432 84.0004 122.636 83.7624 122.897C83.5357 123.146 83.3601 123.447 83.2354 123.798C83.1221 124.138 83.0654 124.501 83.0654 124.886ZM92.6846 122.676C92.6846 122.461 92.679 122.183 92.6676 121.843C92.6563 121.503 92.6393 121.203 92.6166 120.942H94.1296C94.1523 121.146 94.1693 121.384 94.1806 121.656C94.192 121.917 94.1976 122.132 94.1976 122.302H94.2486C94.4753 121.826 94.804 121.446 95.2346 121.163C95.6766 120.868 96.1696 120.721 96.7136 120.721C96.963 120.721 97.1726 120.744 97.3426 120.789L97.2746 122.268C97.048 122.211 96.8043 122.183 96.5436 122.183C96.1583 122.183 95.824 122.257 95.5406 122.404C95.2573 122.54 95.0193 122.727 94.8266 122.965C94.6453 123.203 94.5093 123.481 94.4186 123.798C94.328 124.104 94.2826 124.427 94.2826 124.767V129H92.6846V122.676ZM103.643 123.781C103.643 123.18 103.462 122.738 103.099 122.455C102.736 122.16 102.255 122.013 101.654 122.013C101.201 122.013 100.77 122.104 100.362 122.285C99.9653 122.455 99.631 122.676 99.359 122.948L98.509 121.928C98.9056 121.554 99.3873 121.259 99.954 121.044C100.532 120.829 101.15 120.721 101.807 120.721C102.385 120.721 102.884 120.806 103.303 120.976C103.734 121.135 104.085 121.356 104.357 121.639C104.629 121.922 104.833 122.257 104.969 122.642C105.105 123.027 105.173 123.441 105.173 123.883V127.402C105.173 127.674 105.179 127.963 105.19 128.269C105.213 128.564 105.247 128.807 105.292 129H103.847C103.756 128.615 103.711 128.229 103.711 127.844H103.66C103.365 128.275 102.991 128.609 102.538 128.847C102.096 129.085 101.569 129.204 100.957 129.204C100.64 129.204 100.305 129.159 99.954 129.068C99.614 128.989 99.3023 128.853 99.019 128.66C98.7356 128.467 98.4976 128.212 98.305 127.895C98.1236 127.578 98.033 127.187 98.033 126.722C98.033 126.11 98.1973 125.628 98.526 125.277C98.8546 124.914 99.2853 124.642 99.818 124.461C100.351 124.268 100.951 124.144 101.62 124.087C102.289 124.03 102.963 124.002 103.643 124.002V123.781ZM103.252 125.158C102.855 125.158 102.442 125.175 102.011 125.209C101.592 125.243 101.206 125.311 100.855 125.413C100.515 125.515 100.232 125.668 100.005 125.872C99.7783 126.076 99.665 126.348 99.665 126.688C99.665 126.926 99.7103 127.124 99.801 127.283C99.903 127.442 100.033 127.572 100.192 127.674C100.351 127.776 100.526 127.85 100.719 127.895C100.912 127.929 101.11 127.946 101.314 127.946C102.062 127.946 102.634 127.725 103.031 127.283C103.439 126.83 103.643 126.263 103.643 125.583V125.158H103.252ZM109.406 122.268C109.61 121.837 109.933 121.475 110.375 121.18C110.828 120.874 111.361 120.721 111.973 120.721C112.517 120.721 113.004 120.846 113.435 121.095C113.877 121.344 114.223 121.758 114.472 122.336C114.744 121.815 115.124 121.418 115.611 121.146C116.098 120.863 116.631 120.721 117.209 120.721C117.73 120.721 118.178 120.812 118.552 120.993C118.926 121.163 119.238 121.395 119.487 121.69C119.736 121.985 119.918 122.33 120.031 122.727C120.156 123.124 120.218 123.549 120.218 124.002V129H118.62V124.529C118.62 124.2 118.592 123.889 118.535 123.594C118.478 123.299 118.382 123.039 118.246 122.812C118.11 122.585 117.929 122.404 117.702 122.268C117.475 122.132 117.186 122.064 116.835 122.064C116.472 122.064 116.161 122.143 115.9 122.302C115.639 122.449 115.424 122.648 115.254 122.897C115.095 123.135 114.976 123.407 114.897 123.713C114.829 124.019 114.795 124.331 114.795 124.648V129H113.197V124.206C113.197 123.889 113.169 123.6 113.112 123.339C113.055 123.078 112.959 122.857 112.823 122.676C112.687 122.483 112.511 122.336 112.296 122.234C112.081 122.121 111.814 122.064 111.497 122.064C110.908 122.064 110.415 122.308 110.018 122.795C109.633 123.271 109.44 123.911 109.44 124.716V129H107.842V122.676C107.842 122.461 107.836 122.183 107.825 121.843C107.814 121.503 107.797 121.203 107.774 120.942H109.287C109.31 121.146 109.327 121.378 109.338 121.639C109.349 121.888 109.355 122.098 109.355 122.268H109.406ZM127.251 116.964H128.934V121.996H135.02V116.964H136.72V129H135.02V123.492H128.934V129H127.251V116.964ZM144.566 123.781C144.566 123.18 144.384 122.738 144.022 122.455C143.659 122.16 143.177 122.013 142.577 122.013C142.123 122.013 141.693 122.104 141.285 122.285C140.888 122.455 140.554 122.676 140.282 122.948L139.432 121.928C139.828 121.554 140.31 121.259 140.877 121.044C141.455 120.829 142.072 120.721 142.73 120.721C143.308 120.721 143.806 120.806 144.226 120.976C144.656 121.135 145.008 121.356 145.28 121.639C145.552 121.922 145.756 122.257 145.892 122.642C146.028 123.027 146.096 123.441 146.096 123.883V127.402C146.096 127.674 146.101 127.963 146.113 128.269C146.135 128.564 146.169 128.807 146.215 129H144.77C144.679 128.615 144.634 128.229 144.634 127.844H144.583C144.288 128.275 143.914 128.609 143.461 128.847C143.019 129.085 142.492 129.204 141.88 129.204C141.562 129.204 141.228 129.159 140.877 129.068C140.537 128.989 140.225 128.853 139.942 128.66C139.658 128.467 139.42 128.212 139.228 127.895C139.046 127.578 138.956 127.187 138.956 126.722C138.956 126.11 139.12 125.628 139.449 125.277C139.777 124.914 140.208 124.642 140.741 124.461C141.273 124.268 141.874 124.144 142.543 124.087C143.211 124.03 143.886 124.002 144.566 124.002V123.781ZM144.175 125.158C143.778 125.158 143.364 125.175 142.934 125.209C142.514 125.243 142.129 125.311 141.778 125.413C141.438 125.515 141.154 125.668 140.928 125.872C140.701 126.076 140.588 126.348 140.588 126.688C140.588 126.926 140.633 127.124 140.724 127.283C140.826 127.442 140.956 127.572 141.115 127.674C141.273 127.776 141.449 127.85 141.642 127.895C141.834 127.929 142.033 127.946 142.237 127.946C142.985 127.946 143.557 127.725 143.954 127.283C144.362 126.83 144.566 126.263 144.566 125.583V125.158H144.175ZM150.363 133.08H148.765V120.942H150.329V122.2H150.38C150.64 121.769 151.02 121.418 151.519 121.146C152.029 120.863 152.618 120.721 153.287 120.721C153.887 120.721 154.431 120.829 154.919 121.044C155.417 121.259 155.842 121.56 156.194 121.945C156.556 122.33 156.834 122.784 157.027 123.305C157.219 123.815 157.316 124.365 157.316 124.954C157.316 125.543 157.219 126.099 157.027 126.62C156.834 127.141 156.562 127.595 156.211 127.98C155.859 128.365 155.434 128.671 154.936 128.898C154.437 129.113 153.876 129.221 153.253 129.221C152.675 129.221 152.131 129.096 151.621 128.847C151.111 128.598 150.708 128.246 150.414 127.793H150.363V133.08ZM155.667 124.954C155.667 124.58 155.61 124.217 155.497 123.866C155.383 123.515 155.213 123.203 154.987 122.931C154.76 122.659 154.477 122.444 154.137 122.285C153.808 122.126 153.423 122.047 152.981 122.047C152.573 122.047 152.199 122.126 151.859 122.285C151.53 122.444 151.247 122.659 151.009 122.931C150.771 123.203 150.584 123.515 150.448 123.866C150.323 124.217 150.261 124.586 150.261 124.971C150.261 125.356 150.323 125.725 150.448 126.076C150.584 126.427 150.771 126.739 151.009 127.011C151.247 127.272 151.53 127.481 151.859 127.64C152.199 127.799 152.573 127.878 152.981 127.878C153.423 127.878 153.808 127.799 154.137 127.64C154.477 127.47 154.76 127.249 154.987 126.977C155.213 126.705 155.383 126.393 155.497 126.042C155.61 125.691 155.667 125.328 155.667 124.954ZM161.137 133.08H159.539V120.942H161.103V122.2H161.154C161.415 121.769 161.794 121.418 162.293 121.146C162.803 120.863 163.392 120.721 164.061 120.721C164.662 120.721 165.206 120.829 165.693 121.044C166.192 121.259 166.617 121.56 166.968 121.945C167.331 122.33 167.608 122.784 167.801 123.305C167.994 123.815 168.09 124.365 168.09 124.954C168.09 125.543 167.994 126.099 167.801 126.62C167.608 127.141 167.336 127.595 166.985 127.98C166.634 128.365 166.209 128.671 165.71 128.898C165.211 129.113 164.65 129.221 164.027 129.221C163.449 129.221 162.905 129.096 162.395 128.847C161.885 128.598 161.483 128.246 161.188 127.793H161.137V133.08ZM166.441 124.954C166.441 124.58 166.384 124.217 166.271 123.866C166.158 123.515 165.988 123.203 165.761 122.931C165.534 122.659 165.251 122.444 164.911 122.285C164.582 122.126 164.197 122.047 163.755 122.047C163.347 122.047 162.973 122.126 162.633 122.285C162.304 122.444 162.021 122.659 161.783 122.931C161.545 123.203 161.358 123.515 161.222 123.866C161.097 124.217 161.035 124.586 161.035 124.971C161.035 125.356 161.097 125.725 161.222 126.076C161.358 126.427 161.545 126.739 161.783 127.011C162.021 127.272 162.304 127.481 162.633 127.64C162.973 127.799 163.347 127.878 163.755 127.878C164.197 127.878 164.582 127.799 164.911 127.64C165.251 127.47 165.534 127.249 165.761 126.977C165.988 126.705 166.158 126.393 166.271 126.042C166.384 125.691 166.441 125.328 166.441 124.954ZM173.374 127.266H173.408L175.635 120.942H177.335L173.425 130.904C173.289 131.244 173.141 131.544 172.983 131.805C172.824 132.077 172.637 132.304 172.422 132.485C172.206 132.678 171.951 132.825 171.657 132.927C171.373 133.029 171.033 133.08 170.637 133.08C170.467 133.08 170.291 133.069 170.11 133.046C169.94 133.035 169.764 133.006 169.583 132.961L169.736 131.55C170.008 131.641 170.274 131.686 170.535 131.686C170.954 131.686 171.266 131.567 171.47 131.329C171.674 131.102 171.861 130.774 172.031 130.343L172.541 129L169.09 120.942H170.875L173.374 127.266Z" fill="#828500"/>
<defs>
<filter id="filter0_d_85_136" x="0" y="0" width="245" height="190" filterUnits="userSpaceOnUse" color-interpolation-filters="sRGB">
<feFlood flood-opacity="0" result="BackgroundImageFix"/>
<feColorMatrix in="SourceAlpha" type="matrix" values="0 0 0 0 0 0 0 0 0 0 0 0 0 0 0 0 0 0 127 0" result="hardAlpha"/>
<feOffset/>
<feGaussianBlur stdDeviation="20"/>
<feComposite in2="hardAlpha" operator="out"/>
<feColorMatrix type="matrix" values="0 0 0 0 0.811604 0 0 0 0 0.827572 0 0 0 0 0.0292021 0 0 0 1 0"/>
<feBlend mode="normal" in2="BackgroundImageFix" result="effect1_dropShadow_85_136"/>
<feBlend mode="normal" in="SourceGraphic" in2="effect1_dropShadow_85_136" result="shape"/>
</filter>
<linearGradient id="paint0_linear_85_136" x1="122.5" y1="40" x2="122.5" y2="150" gradientUnits="userSpaceOnUse">
<stop stop-color="white"/>
<stop offset="1" stop-color="#CEE0DB"/>
</linearGradient>
</defs>
</svg>
