<svg width="245" height="190" viewBox="0 0 245 190" fill="none" xmlns="http://www.w3.org/2000/svg">
<g filter="url(#filter0_d_85_144)">
<rect x="40" y="40" width="165" height="110" rx="20" fill="url(#paint0_linear_85_144)"/>
</g>
<path fill-rule="evenodd" clip-rule="evenodd" d="M88.5 83.6052C101.231 83.6052 111.551 94.0794 111.551 107H105.663C105.663 97.3796 97.979 89.5806 88.5 89.5806C79.021 89.5806 71.3368 97.3795 71.3368 107H65.4493C65.4493 94.0794 75.7694 83.6052 88.5 83.6052Z" fill="#336BB7"/>
<path fill-rule="evenodd" clip-rule="evenodd" d="M88.5 73C107.002 73 122 88.2223 122 107H116.112C116.112 91.5224 103.75 78.9754 88.5 78.9754C73.2501 78.9754 60.8875 91.5224 60.8875 107H55C55 88.2223 69.9985 73 88.5 73Z" fill="#336BB7"/>
<path fill-rule="evenodd" clip-rule="evenodd" d="M88.5 93.7284C95.7219 93.7284 101.576 99.6703 101.576 107H95.6889C95.6889 102.97 92.4703 99.7038 88.5 99.7038C84.5297 99.7038 81.3111 102.97 81.3111 107H75.4236C75.4236 99.6703 81.2781 93.7284 88.5 93.7284Z" fill="#336BB7"/>
<path d="M56.462 116.964H60.134C60.78 116.964 61.3693 117.032 61.902 117.168C62.4347 117.293 62.888 117.491 63.262 117.763C63.636 118.035 63.925 118.381 64.129 118.8C64.333 119.219 64.435 119.724 64.435 120.313C64.435 120.914 64.3217 121.429 64.095 121.86C63.8797 122.291 63.5737 122.642 63.177 122.914C62.7917 123.186 62.327 123.39 61.783 123.526C61.2503 123.651 60.6723 123.713 60.049 123.713H58.145V129H56.462V116.964ZM58.145 122.285H59.93C60.338 122.285 60.712 122.251 61.052 122.183C61.4033 122.104 61.7037 121.99 61.953 121.843C62.2023 121.684 62.395 121.48 62.531 121.231C62.667 120.982 62.735 120.676 62.735 120.313C62.735 119.95 62.6613 119.65 62.514 119.412C62.378 119.163 62.1853 118.964 61.936 118.817C61.698 118.658 61.409 118.551 61.069 118.494C60.729 118.426 60.3607 118.392 59.964 118.392H58.145V122.285ZM70.0259 122.982C69.8445 122.687 69.5895 122.449 69.2609 122.268C68.9322 122.075 68.5639 121.979 68.1559 121.979C67.9745 121.979 67.7932 122.002 67.6119 122.047C67.4305 122.081 67.2662 122.143 67.1189 122.234C66.9829 122.313 66.8695 122.421 66.7789 122.557C66.6995 122.682 66.6599 122.84 66.6599 123.033C66.6599 123.373 66.8129 123.628 67.1189 123.798C67.4249 123.957 67.8839 124.104 68.4959 124.24C68.8812 124.331 69.2382 124.438 69.5669 124.563C69.8955 124.688 70.1789 124.846 70.4169 125.039C70.6662 125.22 70.8589 125.441 70.9949 125.702C71.1309 125.963 71.1989 126.269 71.1989 126.62C71.1989 127.096 71.1082 127.498 70.9269 127.827C70.7455 128.156 70.5019 128.428 70.1959 128.643C69.9012 128.847 69.5612 128.994 69.1759 129.085C68.7905 129.176 68.3939 129.221 67.9859 129.221C67.3739 129.221 66.7732 129.102 66.1839 128.864C65.6059 128.626 65.1242 128.263 64.7389 127.776L65.8779 126.807C66.0932 127.124 66.3879 127.391 66.7619 127.606C67.1472 127.821 67.5665 127.929 68.0199 127.929C68.2239 127.929 68.4165 127.912 68.5979 127.878C68.7905 127.833 68.9605 127.765 69.1079 127.674C69.2665 127.583 69.3912 127.464 69.4819 127.317C69.5725 127.17 69.6179 126.983 69.6179 126.756C69.6179 126.382 69.4365 126.104 69.0739 125.923C68.7225 125.742 68.2012 125.572 67.5099 125.413C67.2379 125.345 66.9602 125.266 66.6769 125.175C66.4049 125.073 66.1555 124.937 65.9289 124.767C65.7022 124.597 65.5152 124.387 65.3679 124.138C65.2319 123.877 65.1639 123.56 65.1639 123.186C65.1639 122.755 65.2489 122.387 65.4189 122.081C65.6002 121.764 65.8325 121.509 66.1159 121.316C66.3992 121.112 66.7222 120.965 67.0849 120.874C67.4475 120.772 67.8215 120.721 68.2069 120.721C68.7849 120.721 69.3402 120.834 69.8729 121.061C70.4169 121.288 70.8362 121.616 71.1309 122.047L70.0259 122.982ZM74.8426 129H73.2446V120.942H74.8426V129ZM75.1146 118.035C75.1146 118.33 75.0069 118.573 74.7916 118.766C74.5876 118.959 74.3383 119.055 74.0436 119.055C73.7489 119.055 73.4996 118.959 73.2956 118.766C73.0916 118.562 72.9896 118.318 72.9896 118.035C72.9896 117.74 73.0916 117.497 73.2956 117.304C73.4996 117.1 73.7489 116.998 74.0436 116.998C74.3383 116.998 74.5876 117.1 74.7916 117.304C75.0069 117.497 75.1146 117.74 75.1146 118.035ZM79.259 124.444H79.31L82.693 120.942H84.835L81.061 124.597L85.158 129H82.948L79.31 124.818H79.259V129H77.661V116.148H79.259V124.444ZM94.4198 124.954C94.4198 125.577 94.3065 126.15 94.0798 126.671C93.8645 127.192 93.5585 127.646 93.1618 128.031C92.7765 128.405 92.3175 128.7 91.7848 128.915C91.2521 129.119 90.6798 129.221 90.0678 129.221C89.4558 129.221 88.8835 129.119 88.3508 128.915C87.8181 128.7 87.3591 128.405 86.9738 128.031C86.5885 127.646 86.2825 127.192 86.0558 126.671C85.8405 126.15 85.7328 125.577 85.7328 124.954C85.7328 124.331 85.8405 123.764 86.0558 123.254C86.2825 122.733 86.5885 122.285 86.9738 121.911C87.3591 121.537 87.8181 121.248 88.3508 121.044C88.8835 120.829 89.4558 120.721 90.0678 120.721C90.6798 120.721 91.2521 120.829 91.7848 121.044C92.3175 121.248 92.7765 121.537 93.1618 121.911C93.5585 122.285 93.8645 122.733 94.0798 123.254C94.3065 123.764 94.4198 124.331 94.4198 124.954ZM92.7538 124.954C92.7538 124.569 92.6915 124.2 92.5668 123.849C92.4535 123.498 92.2835 123.192 92.0568 122.931C91.8301 122.659 91.5468 122.444 91.2068 122.285C90.8781 122.126 90.4985 122.047 90.0678 122.047C89.6371 122.047 89.2518 122.126 88.9118 122.285C88.5831 122.444 88.3055 122.659 88.0788 122.931C87.8521 123.192 87.6765 123.498 87.5518 123.849C87.4385 124.2 87.3818 124.569 87.3818 124.954C87.3818 125.339 87.4385 125.708 87.5518 126.059C87.6765 126.41 87.8521 126.722 88.0788 126.994C88.3055 127.266 88.5831 127.481 88.9118 127.64C89.2518 127.799 89.6371 127.878 90.0678 127.878C90.4985 127.878 90.8781 127.799 91.2068 127.64C91.5468 127.481 91.8301 127.266 92.0568 126.994C92.2835 126.722 92.4535 126.41 92.5668 126.059C92.6915 125.708 92.7538 125.339 92.7538 124.954ZM102.535 124.257C102.523 123.94 102.467 123.645 102.365 123.373C102.274 123.09 102.132 122.846 101.94 122.642C101.758 122.438 101.526 122.279 101.243 122.166C100.971 122.041 100.648 121.979 100.274 121.979C99.9338 121.979 99.6108 122.041 99.3048 122.166C99.0101 122.279 98.7495 122.438 98.5228 122.642C98.3075 122.846 98.1261 123.09 97.9788 123.373C97.8428 123.645 97.7635 123.94 97.7408 124.257H102.535ZM104.15 124.903C104.15 124.994 104.15 125.084 104.15 125.175C104.15 125.266 104.144 125.356 104.133 125.447H97.7408C97.7521 125.787 97.8258 126.11 97.9618 126.416C98.1091 126.711 98.3018 126.971 98.5398 127.198C98.7778 127.413 99.0498 127.583 99.3558 127.708C99.6731 127.833 100.007 127.895 100.359 127.895C100.903 127.895 101.373 127.776 101.77 127.538C102.166 127.3 102.478 127.011 102.705 126.671L103.827 127.572C103.396 128.139 102.886 128.558 102.297 128.83C101.719 129.091 101.073 129.221 100.359 129.221C99.7468 129.221 99.1801 129.119 98.6588 128.915C98.1375 128.711 97.6898 128.428 97.3158 128.065C96.9418 127.691 96.6471 127.243 96.4318 126.722C96.2165 126.201 96.1088 125.623 96.1088 124.988C96.1088 124.365 96.2108 123.792 96.4148 123.271C96.6301 122.738 96.9248 122.285 97.2988 121.911C97.6728 121.537 98.1148 121.248 98.6248 121.044C99.1348 120.829 99.6845 120.721 100.274 120.721C100.863 120.721 101.396 120.817 101.872 121.01C102.359 121.203 102.767 121.48 103.096 121.843C103.436 122.206 103.696 122.648 103.878 123.169C104.059 123.679 104.15 124.257 104.15 124.903ZM112.807 127.725C112.501 128.212 112.082 128.586 111.549 128.847C111.028 129.096 110.478 129.221 109.9 129.221C109.277 129.221 108.716 129.113 108.217 128.898C107.718 128.671 107.293 128.365 106.942 127.98C106.591 127.595 106.319 127.141 106.126 126.62C105.933 126.099 105.837 125.543 105.837 124.954C105.837 124.365 105.933 123.815 106.126 123.305C106.319 122.784 106.591 122.33 106.942 121.945C107.305 121.56 107.735 121.259 108.234 121.044C108.733 120.829 109.282 120.721 109.883 120.721C110.54 120.721 111.113 120.863 111.6 121.146C112.087 121.418 112.473 121.752 112.756 122.149H112.79V116.148H114.388V129H112.841V127.725H112.807ZM107.503 124.954C107.503 125.328 107.56 125.691 107.673 126.042C107.786 126.393 107.956 126.705 108.183 126.977C108.41 127.249 108.687 127.47 109.016 127.64C109.345 127.799 109.73 127.878 110.172 127.878C110.58 127.878 110.948 127.799 111.277 127.64C111.617 127.481 111.906 127.272 112.144 127.011C112.382 126.739 112.563 126.427 112.688 126.076C112.824 125.725 112.892 125.356 112.892 124.971C112.892 124.586 112.824 124.217 112.688 123.866C112.563 123.515 112.382 123.203 112.144 122.931C111.906 122.659 111.617 122.444 111.277 122.285C110.948 122.126 110.58 122.047 110.172 122.047C109.73 122.047 109.345 122.126 109.016 122.285C108.687 122.444 108.41 122.659 108.183 122.931C107.956 123.203 107.786 123.515 107.673 123.866C107.56 124.217 107.503 124.58 107.503 124.954ZM122.85 129C122.827 128.796 122.81 128.569 122.799 128.32C122.788 128.059 122.782 127.844 122.782 127.674H122.748C122.544 128.105 122.198 128.473 121.711 128.779C121.235 129.074 120.702 129.221 120.113 129.221C119.592 129.221 119.138 129.136 118.753 128.966C118.379 128.796 118.067 128.564 117.818 128.269C117.58 127.963 117.399 127.612 117.274 127.215C117.161 126.818 117.104 126.393 117.104 125.94V120.942H118.702V125.396C118.702 125.725 118.725 126.042 118.77 126.348C118.827 126.643 118.923 126.903 119.059 127.13C119.195 127.357 119.382 127.538 119.62 127.674C119.858 127.81 120.164 127.878 120.538 127.878C121.184 127.878 121.705 127.64 122.102 127.164C122.499 126.677 122.697 126.031 122.697 125.226V120.942H124.295V127.266C124.295 127.481 124.301 127.759 124.312 128.099C124.323 128.439 124.34 128.739 124.363 129H122.85ZM128.698 124.444H128.749L132.132 120.942H134.274L130.5 124.597L134.597 129H132.387L128.749 124.818H128.698V129H127.1V116.148H128.698V124.444ZM140.947 123.781C140.947 123.18 140.765 122.738 140.403 122.455C140.04 122.16 139.558 122.013 138.958 122.013C138.504 122.013 138.074 122.104 137.666 122.285C137.269 122.455 136.935 122.676 136.663 122.948L135.813 121.928C136.209 121.554 136.691 121.259 137.258 121.044C137.836 120.829 138.453 120.721 139.111 120.721C139.689 120.721 140.187 120.806 140.607 120.976C141.037 121.135 141.389 121.356 141.661 121.639C141.933 121.922 142.137 122.257 142.273 122.642C142.409 123.027 142.477 123.441 142.477 123.883V127.402C142.477 127.674 142.482 127.963 142.494 128.269C142.516 128.564 142.55 128.807 142.596 129H141.151C141.06 128.615 141.015 128.229 141.015 127.844H140.964C140.669 128.275 140.295 128.609 139.842 128.847C139.4 129.085 138.873 129.204 138.261 129.204C137.943 129.204 137.609 129.159 137.258 129.068C136.918 128.989 136.606 128.853 136.323 128.66C136.039 128.467 135.801 128.212 135.609 127.895C135.427 127.578 135.337 127.187 135.337 126.722C135.337 126.11 135.501 125.628 135.83 125.277C136.158 124.914 136.589 124.642 137.122 124.461C137.654 124.268 138.255 124.144 138.924 124.087C139.592 124.03 140.267 124.002 140.947 124.002V123.781ZM140.556 125.158C140.159 125.158 139.745 125.175 139.315 125.209C138.895 125.243 138.51 125.311 138.159 125.413C137.819 125.515 137.535 125.668 137.309 125.872C137.082 126.076 136.969 126.348 136.969 126.688C136.969 126.926 137.014 127.124 137.105 127.283C137.207 127.442 137.337 127.572 137.496 127.674C137.654 127.776 137.83 127.85 138.023 127.895C138.215 127.929 138.414 127.946 138.618 127.946C139.366 127.946 139.938 127.725 140.335 127.283C140.743 126.83 140.947 126.263 140.947 125.583V125.158H140.556ZM149.498 122.982C149.316 122.687 149.061 122.449 148.733 122.268C148.404 122.075 148.036 121.979 147.628 121.979C147.446 121.979 147.265 122.002 147.084 122.047C146.902 122.081 146.738 122.143 146.591 122.234C146.455 122.313 146.341 122.421 146.251 122.557C146.171 122.682 146.132 122.84 146.132 123.033C146.132 123.373 146.285 123.628 146.591 123.798C146.897 123.957 147.356 124.104 147.968 124.24C148.353 124.331 148.71 124.438 149.039 124.563C149.367 124.688 149.651 124.846 149.889 125.039C150.138 125.22 150.331 125.441 150.467 125.702C150.603 125.963 150.671 126.269 150.671 126.62C150.671 127.096 150.58 127.498 150.399 127.827C150.217 128.156 149.974 128.428 149.668 128.643C149.373 128.847 149.033 128.994 148.648 129.085C148.262 129.176 147.866 129.221 147.458 129.221C146.846 129.221 146.245 129.102 145.656 128.864C145.078 128.626 144.596 128.263 144.211 127.776L145.35 126.807C145.565 127.124 145.86 127.391 146.234 127.606C146.619 127.821 147.038 127.929 147.492 127.929C147.696 127.929 147.888 127.912 148.07 127.878C148.262 127.833 148.432 127.765 148.58 127.674C148.738 127.583 148.863 127.464 148.954 127.317C149.044 127.17 149.09 126.983 149.09 126.756C149.09 126.382 148.908 126.104 148.546 125.923C148.194 125.742 147.673 125.572 146.982 125.413C146.71 125.345 146.432 125.266 146.149 125.175C145.877 125.073 145.627 124.937 145.401 124.767C145.174 124.597 144.987 124.387 144.84 124.138C144.704 123.877 144.636 123.56 144.636 123.186C144.636 122.755 144.721 122.387 144.891 122.081C145.072 121.764 145.304 121.509 145.588 121.316C145.871 121.112 146.194 120.965 146.557 120.874C146.919 120.772 147.293 120.721 147.679 120.721C148.257 120.721 148.812 120.834 149.345 121.061C149.889 121.288 150.308 121.616 150.603 122.047L149.498 122.982ZM154.314 129H152.716V120.942H154.314V129ZM154.586 118.035C154.586 118.33 154.479 118.573 154.263 118.766C154.059 118.959 153.81 119.055 153.515 119.055C153.221 119.055 152.971 118.959 152.767 118.766C152.563 118.562 152.461 118.318 152.461 118.035C152.461 117.74 152.563 117.497 152.767 117.304C152.971 117.1 153.221 116.998 153.515 116.998C153.81 116.998 154.059 117.1 154.263 117.304C154.479 117.497 154.586 117.74 154.586 118.035Z" fill="#007AFF"/>
<defs>
<filter id="filter0_d_85_144" x="0" y="0" width="245" height="190" filterUnits="userSpaceOnUse" color-interpolation-filters="sRGB">
<feFlood flood-opacity="0" result="BackgroundImageFix"/>
<feColorMatrix in="SourceAlpha" type="matrix" values="0 0 0 0 0 0 0 0 0 0 0 0 0 0 0 0 0 0 127 0" result="hardAlpha"/>
<feOffset/>
<feGaussianBlur stdDeviation="20"/>
<feComposite in2="hardAlpha" operator="out"/>
<feColorMatrix type="matrix" values="0 0 0 0 0.141176 0 0 0 0 0.466667 0 0 0 0 1 0 0 0 1 0"/>
<feBlend mode="normal" in2="BackgroundImageFix" result="effect1_dropShadow_85_144"/>
<feBlend mode="normal" in="SourceGraphic" in2="effect1_dropShadow_85_144" result="shape"/>
</filter>
<linearGradient id="paint0_linear_85_144" x1="122.5" y1="40" x2="122.5" y2="150" gradientUnits="userSpaceOnUse">
<stop stop-color="white"/>
<stop offset="1" stop-color="#CEE0DB"/>
</linearGradient>
</defs>
</svg>
