<svg width="245" height="190" viewBox="0 0 245 190" fill="none" xmlns="http://www.w3.org/2000/svg">
<g filter="url(#filter0_d_85_140)">
<rect x="40" y="40" width="165" height="110" rx="20" fill="url(#paint0_linear_85_140)"/>
</g>
<path fill-rule="evenodd" clip-rule="evenodd" d="M120.777 83.5403C123.058 87.1381 122.056 91.9466 118.541 94.2804L103.172 104.484C99.5011 106.92 94.7737 106.92 91.1031 104.484L79.8626 97.0213L66.7165 105.749C63.2012 108.082 58.5029 107.058 56.2227 103.46C53.9424 99.8619 54.9437 95.0534 58.4591 92.7196L73.8283 82.5164C77.4989 80.0796 82.2263 80.0796 85.8969 82.5164L97.1374 89.9787L110.283 81.2514C113.799 78.9176 118.497 79.9424 120.777 83.5403Z" fill="#00DA9E"/>
<path d="M56.462 116.964H60.134C60.78 116.964 61.3693 117.032 61.902 117.168C62.4347 117.293 62.888 117.491 63.262 117.763C63.636 118.035 63.925 118.381 64.129 118.8C64.333 119.219 64.435 119.724 64.435 120.313C64.435 120.914 64.3217 121.429 64.095 121.86C63.8797 122.291 63.5737 122.642 63.177 122.914C62.7917 123.186 62.327 123.39 61.783 123.526C61.2503 123.651 60.6723 123.713 60.049 123.713H58.145V129H56.462V116.964ZM58.145 122.285H59.93C60.338 122.285 60.712 122.251 61.052 122.183C61.4033 122.104 61.7037 121.99 61.953 121.843C62.2023 121.684 62.395 121.48 62.531 121.231C62.667 120.982 62.735 120.676 62.735 120.313C62.735 119.95 62.6613 119.65 62.514 119.412C62.378 119.163 62.1853 118.964 61.936 118.817C61.698 118.658 61.409 118.551 61.069 118.494C60.729 118.426 60.3607 118.392 59.964 118.392H58.145V122.285ZM65.7071 122.676C65.7071 122.461 65.7014 122.183 65.6901 121.843C65.6787 121.503 65.6617 121.203 65.6391 120.942H67.1521C67.1747 121.146 67.1917 121.384 67.2031 121.656C67.2144 121.917 67.2201 122.132 67.2201 122.302H67.2711C67.4977 121.826 67.8264 121.446 68.2571 121.163C68.6991 120.868 69.1921 120.721 69.7361 120.721C69.9854 120.721 70.1951 120.744 70.3651 120.789L70.2971 122.268C70.0704 122.211 69.8267 122.183 69.5661 122.183C69.1807 122.183 68.8464 122.257 68.5631 122.404C68.2797 122.54 68.0417 122.727 67.8491 122.965C67.6677 123.203 67.5317 123.481 67.4411 123.798C67.3504 124.104 67.3051 124.427 67.3051 124.767V129H65.7071V122.676ZM79.7274 124.954C79.7274 125.577 79.6141 126.15 79.3874 126.671C79.1721 127.192 78.8661 127.646 78.4694 128.031C78.0841 128.405 77.6251 128.7 77.0924 128.915C76.5598 129.119 75.9874 129.221 75.3754 129.221C74.7634 129.221 74.1911 129.119 73.6584 128.915C73.1258 128.7 72.6668 128.405 72.2814 128.031C71.8961 127.646 71.5901 127.192 71.3634 126.671C71.1481 126.15 71.0404 125.577 71.0404 124.954C71.0404 124.331 71.1481 123.764 71.3634 123.254C71.5901 122.733 71.8961 122.285 72.2814 121.911C72.6668 121.537 73.1258 121.248 73.6584 121.044C74.1911 120.829 74.7634 120.721 75.3754 120.721C75.9874 120.721 76.5598 120.829 77.0924 121.044C77.6251 121.248 78.0841 121.537 78.4694 121.911C78.8661 122.285 79.1721 122.733 79.3874 123.254C79.6141 123.764 79.7274 124.331 79.7274 124.954ZM78.0614 124.954C78.0614 124.569 77.9991 124.2 77.8744 123.849C77.7611 123.498 77.5911 123.192 77.3644 122.931C77.1378 122.659 76.8544 122.444 76.5144 122.285C76.1858 122.126 75.8061 122.047 75.3754 122.047C74.9448 122.047 74.5594 122.126 74.2194 122.285C73.8908 122.444 73.6131 122.659 73.3864 122.931C73.1598 123.192 72.9841 123.498 72.8594 123.849C72.7461 124.2 72.6894 124.569 72.6894 124.954C72.6894 125.339 72.7461 125.708 72.8594 126.059C72.9841 126.41 73.1598 126.722 73.3864 126.994C73.6131 127.266 73.8908 127.481 74.2194 127.64C74.5594 127.799 74.9448 127.878 75.3754 127.878C75.8061 127.878 76.1858 127.799 76.5144 127.64C76.8544 127.481 77.1378 127.266 77.3644 126.994C77.5911 126.722 77.7611 126.41 77.8744 126.059C77.9991 125.708 78.0614 125.339 78.0614 124.954ZM82.5724 130.377C82.9237 130.774 83.3601 131.091 83.8814 131.329C84.4141 131.567 84.9581 131.686 85.5134 131.686C86.0461 131.686 86.4937 131.607 86.8564 131.448C87.2191 131.301 87.5081 131.091 87.7234 130.819C87.9501 130.558 88.1087 130.247 88.1994 129.884C88.3014 129.521 88.3524 129.13 88.3524 128.711V127.674H88.3184C88.0237 128.127 87.6214 128.473 87.1114 128.711C86.6014 128.949 86.0574 129.068 85.4794 129.068C84.8674 129.068 84.3064 128.96 83.7964 128.745C83.2977 128.53 82.8727 128.235 82.5214 127.861C82.1701 127.487 81.8981 127.051 81.7054 126.552C81.5127 126.042 81.4164 125.498 81.4164 124.92C81.4164 124.342 81.5127 123.798 81.7054 123.288C81.8981 122.778 82.1701 122.336 82.5214 121.962C82.8727 121.577 83.2977 121.276 83.7964 121.061C84.2951 120.834 84.8504 120.721 85.4624 120.721C86.0404 120.721 86.5901 120.846 87.1114 121.095C87.6441 121.344 88.0634 121.724 88.3694 122.234H88.4034V120.942H89.9504V128.592C89.9504 129.181 89.8767 129.742 89.7294 130.275C89.5821 130.819 89.3327 131.295 88.9814 131.703C88.6301 132.122 88.1711 132.457 87.6044 132.706C87.0377 132.955 86.3351 133.08 85.4964 133.08C84.7937 133.08 84.0854 132.95 83.3714 132.689C82.6687 132.44 82.0624 132.083 81.5524 131.618L82.5724 130.377ZM83.0654 124.886C83.0654 125.26 83.1221 125.617 83.2354 125.957C83.3601 126.297 83.5357 126.597 83.7624 126.858C84.0004 127.119 84.2837 127.328 84.6124 127.487C84.9411 127.646 85.3151 127.725 85.7344 127.725C86.1424 127.725 86.5164 127.651 86.8564 127.504C87.1964 127.357 87.4854 127.158 87.7234 126.909C87.9614 126.648 88.1427 126.348 88.2674 126.008C88.4034 125.657 88.4714 125.283 88.4714 124.886C88.4714 124.501 88.4034 124.138 88.2674 123.798C88.1427 123.458 87.9557 123.158 87.7064 122.897C87.4684 122.636 87.1794 122.432 86.8394 122.285C86.5107 122.126 86.1424 122.047 85.7344 122.047C85.3151 122.047 84.9411 122.126 84.6124 122.285C84.2837 122.432 84.0004 122.636 83.7624 122.897C83.5357 123.146 83.3601 123.447 83.2354 123.798C83.1221 124.138 83.0654 124.501 83.0654 124.886ZM92.6846 122.676C92.6846 122.461 92.679 122.183 92.6676 121.843C92.6563 121.503 92.6393 121.203 92.6166 120.942H94.1296C94.1523 121.146 94.1693 121.384 94.1806 121.656C94.192 121.917 94.1976 122.132 94.1976 122.302H94.2486C94.4753 121.826 94.804 121.446 95.2346 121.163C95.6766 120.868 96.1696 120.721 96.7136 120.721C96.963 120.721 97.1726 120.744 97.3426 120.789L97.2746 122.268C97.048 122.211 96.8043 122.183 96.5436 122.183C96.1583 122.183 95.824 122.257 95.5406 122.404C95.2573 122.54 95.0193 122.727 94.8266 122.965C94.6453 123.203 94.5093 123.481 94.4186 123.798C94.328 124.104 94.2826 124.427 94.2826 124.767V129H92.6846V122.676ZM103.643 123.781C103.643 123.18 103.462 122.738 103.099 122.455C102.736 122.16 102.255 122.013 101.654 122.013C101.201 122.013 100.77 122.104 100.362 122.285C99.9653 122.455 99.631 122.676 99.359 122.948L98.509 121.928C98.9056 121.554 99.3873 121.259 99.954 121.044C100.532 120.829 101.15 120.721 101.807 120.721C102.385 120.721 102.884 120.806 103.303 120.976C103.734 121.135 104.085 121.356 104.357 121.639C104.629 121.922 104.833 122.257 104.969 122.642C105.105 123.027 105.173 123.441 105.173 123.883V127.402C105.173 127.674 105.179 127.963 105.19 128.269C105.213 128.564 105.247 128.807 105.292 129H103.847C103.756 128.615 103.711 128.229 103.711 127.844H103.66C103.365 128.275 102.991 128.609 102.538 128.847C102.096 129.085 101.569 129.204 100.957 129.204C100.64 129.204 100.305 129.159 99.954 129.068C99.614 128.989 99.3023 128.853 99.019 128.66C98.7356 128.467 98.4976 128.212 98.305 127.895C98.1236 127.578 98.033 127.187 98.033 126.722C98.033 126.11 98.1973 125.628 98.526 125.277C98.8546 124.914 99.2853 124.642 99.818 124.461C100.351 124.268 100.951 124.144 101.62 124.087C102.289 124.03 102.963 124.002 103.643 124.002V123.781ZM103.252 125.158C102.855 125.158 102.442 125.175 102.011 125.209C101.592 125.243 101.206 125.311 100.855 125.413C100.515 125.515 100.232 125.668 100.005 125.872C99.7783 126.076 99.665 126.348 99.665 126.688C99.665 126.926 99.7103 127.124 99.801 127.283C99.903 127.442 100.033 127.572 100.192 127.674C100.351 127.776 100.526 127.85 100.719 127.895C100.912 127.929 101.11 127.946 101.314 127.946C102.062 127.946 102.634 127.725 103.031 127.283C103.439 126.83 103.643 126.263 103.643 125.583V125.158H103.252ZM109.406 122.268C109.61 121.837 109.933 121.475 110.375 121.18C110.828 120.874 111.361 120.721 111.973 120.721C112.517 120.721 113.004 120.846 113.435 121.095C113.877 121.344 114.223 121.758 114.472 122.336C114.744 121.815 115.124 121.418 115.611 121.146C116.098 120.863 116.631 120.721 117.209 120.721C117.73 120.721 118.178 120.812 118.552 120.993C118.926 121.163 119.238 121.395 119.487 121.69C119.736 121.985 119.918 122.33 120.031 122.727C120.156 123.124 120.218 123.549 120.218 124.002V129H118.62V124.529C118.62 124.2 118.592 123.889 118.535 123.594C118.478 123.299 118.382 123.039 118.246 122.812C118.11 122.585 117.929 122.404 117.702 122.268C117.475 122.132 117.186 122.064 116.835 122.064C116.472 122.064 116.161 122.143 115.9 122.302C115.639 122.449 115.424 122.648 115.254 122.897C115.095 123.135 114.976 123.407 114.897 123.713C114.829 124.019 114.795 124.331 114.795 124.648V129H113.197V124.206C113.197 123.889 113.169 123.6 113.112 123.339C113.055 123.078 112.959 122.857 112.823 122.676C112.687 122.483 112.511 122.336 112.296 122.234C112.081 122.121 111.814 122.064 111.497 122.064C110.908 122.064 110.415 122.308 110.018 122.795C109.633 123.271 109.44 123.911 109.44 124.716V129H107.842V122.676C107.842 122.461 107.836 122.183 107.825 121.843C107.814 121.503 107.797 121.203 107.774 120.942H109.287C109.31 121.146 109.327 121.378 109.338 121.639C109.349 121.888 109.355 122.098 109.355 122.268H109.406ZM128.934 127.504H135.224V129H127.251V116.964H134.969V118.443H128.934V122.047H134.612V123.492H128.934V127.504ZM143.802 127.725C143.496 128.212 143.077 128.586 142.544 128.847C142.023 129.096 141.473 129.221 140.895 129.221C140.272 129.221 139.711 129.113 139.212 128.898C138.713 128.671 138.288 128.365 137.937 127.98C137.586 127.595 137.314 127.141 137.121 126.62C136.928 126.099 136.832 125.543 136.832 124.954C136.832 124.365 136.928 123.815 137.121 123.305C137.314 122.784 137.586 122.33 137.937 121.945C138.3 121.56 138.73 121.259 139.229 121.044C139.728 120.829 140.277 120.721 140.878 120.721C141.535 120.721 142.108 120.863 142.595 121.146C143.082 121.418 143.468 121.752 143.751 122.149H143.785V116.148H145.383V129H143.836V127.725H143.802ZM138.498 124.954C138.498 125.328 138.555 125.691 138.668 126.042C138.781 126.393 138.951 126.705 139.178 126.977C139.405 127.249 139.682 127.47 140.011 127.64C140.34 127.799 140.725 127.878 141.167 127.878C141.575 127.878 141.943 127.799 142.272 127.64C142.612 127.481 142.901 127.272 143.139 127.011C143.377 126.739 143.558 126.427 143.683 126.076C143.819 125.725 143.887 125.356 143.887 124.971C143.887 124.586 143.819 124.217 143.683 123.866C143.558 123.515 143.377 123.203 143.139 122.931C142.901 122.659 142.612 122.444 142.272 122.285C141.943 122.126 141.575 122.047 141.167 122.047C140.725 122.047 140.34 122.126 140.011 122.285C139.682 122.444 139.405 122.659 139.178 122.931C138.951 123.203 138.781 123.515 138.668 123.866C138.555 124.217 138.498 124.58 138.498 124.954ZM153.845 129C153.822 128.796 153.805 128.569 153.794 128.32C153.783 128.059 153.777 127.844 153.777 127.674H153.743C153.539 128.105 153.193 128.473 152.706 128.779C152.23 129.074 151.697 129.221 151.108 129.221C150.587 129.221 150.133 129.136 149.748 128.966C149.374 128.796 149.062 128.564 148.813 128.269C148.575 127.963 148.394 127.612 148.269 127.215C148.156 126.818 148.099 126.393 148.099 125.94V120.942H149.697V125.396C149.697 125.725 149.72 126.042 149.765 126.348C149.822 126.643 149.918 126.903 150.054 127.13C150.19 127.357 150.377 127.538 150.615 127.674C150.853 127.81 151.159 127.878 151.533 127.878C152.179 127.878 152.7 127.64 153.097 127.164C153.494 126.677 153.692 126.031 153.692 125.226V120.942H155.29V127.266C155.29 127.481 155.296 127.759 155.307 128.099C155.318 128.439 155.335 128.739 155.358 129H153.845ZM159.694 124.444H159.745L163.128 120.942H165.27L161.496 124.597L165.593 129H163.383L159.745 124.818H159.694V129H158.096V116.148H159.694V124.444ZM171.942 123.781C171.942 123.18 171.76 122.738 171.398 122.455C171.035 122.16 170.553 122.013 169.953 122.013C169.499 122.013 169.069 122.104 168.661 122.285C168.264 122.455 167.93 122.676 167.658 122.948L166.808 121.928C167.204 121.554 167.686 121.259 168.253 121.044C168.831 120.829 169.448 120.721 170.106 120.721C170.684 120.721 171.182 120.806 171.602 120.976C172.032 121.135 172.384 121.356 172.656 121.639C172.928 121.922 173.132 122.257 173.268 122.642C173.404 123.027 173.472 123.441 173.472 123.883V127.402C173.472 127.674 173.477 127.963 173.489 128.269C173.511 128.564 173.545 128.807 173.591 129H172.146C172.055 128.615 172.01 128.229 172.01 127.844H171.959C171.664 128.275 171.29 128.609 170.837 128.847C170.395 129.085 169.868 129.204 169.256 129.204C168.938 129.204 168.604 129.159 168.253 129.068C167.913 128.989 167.601 128.853 167.318 128.66C167.034 128.467 166.796 128.212 166.604 127.895C166.422 127.578 166.332 127.187 166.332 126.722C166.332 126.11 166.496 125.628 166.825 125.277C167.153 124.914 167.584 124.642 168.117 124.461C168.649 124.268 169.25 124.144 169.919 124.087C170.587 124.03 171.262 124.002 171.942 124.002V123.781ZM171.551 125.158C171.154 125.158 170.74 125.175 170.31 125.209C169.89 125.243 169.505 125.311 169.154 125.413C168.814 125.515 168.53 125.668 168.304 125.872C168.077 126.076 167.964 126.348 167.964 126.688C167.964 126.926 168.009 127.124 168.1 127.283C168.202 127.442 168.332 127.572 168.491 127.674C168.649 127.776 168.825 127.85 169.018 127.895C169.21 127.929 169.409 127.946 169.613 127.946C170.361 127.946 170.933 127.725 171.33 127.283C171.738 126.83 171.942 126.263 171.942 125.583V125.158H171.551ZM180.493 122.982C180.311 122.687 180.056 122.449 179.728 122.268C179.399 122.075 179.031 121.979 178.623 121.979C178.441 121.979 178.26 122.002 178.079 122.047C177.897 122.081 177.733 122.143 177.586 122.234C177.45 122.313 177.336 122.421 177.246 122.557C177.166 122.682 177.127 122.84 177.127 123.033C177.127 123.373 177.28 123.628 177.586 123.798C177.892 123.957 178.351 124.104 178.963 124.24C179.348 124.331 179.705 124.438 180.034 124.563C180.362 124.688 180.646 124.846 180.884 125.039C181.133 125.22 181.326 125.441 181.462 125.702C181.598 125.963 181.666 126.269 181.666 126.62C181.666 127.096 181.575 127.498 181.394 127.827C181.212 128.156 180.969 128.428 180.663 128.643C180.368 128.847 180.028 128.994 179.643 129.085C179.257 129.176 178.861 129.221 178.453 129.221C177.841 129.221 177.24 129.102 176.651 128.864C176.073 128.626 175.591 128.263 175.206 127.776L176.345 126.807C176.56 127.124 176.855 127.391 177.229 127.606C177.614 127.821 178.033 127.929 178.487 127.929C178.691 127.929 178.883 127.912 179.065 127.878C179.257 127.833 179.427 127.765 179.575 127.674C179.733 127.583 179.858 127.464 179.949 127.317C180.039 127.17 180.085 126.983 180.085 126.756C180.085 126.382 179.903 126.104 179.541 125.923C179.189 125.742 178.668 125.572 177.977 125.413C177.705 125.345 177.427 125.266 177.144 125.175C176.872 125.073 176.622 124.937 176.396 124.767C176.169 124.597 175.982 124.387 175.835 124.138C175.699 123.877 175.631 123.56 175.631 123.186C175.631 122.755 175.716 122.387 175.886 122.081C176.067 121.764 176.299 121.509 176.583 121.316C176.866 121.112 177.189 120.965 177.552 120.874C177.914 120.772 178.288 120.721 178.674 120.721C179.252 120.721 179.807 120.834 180.34 121.061C180.884 121.288 181.303 121.616 181.598 122.047L180.493 122.982ZM185.309 129H183.711V120.942H185.309V129ZM185.581 118.035C185.581 118.33 185.474 118.573 185.258 118.766C185.054 118.959 184.805 119.055 184.51 119.055C184.216 119.055 183.966 118.959 183.762 118.766C183.558 118.562 183.456 118.318 183.456 118.035C183.456 117.74 183.558 117.497 183.762 117.304C183.966 117.1 184.216 116.998 184.51 116.998C184.805 116.998 185.054 117.1 185.258 117.304C185.474 117.497 185.581 117.74 185.581 118.035Z" fill="#007253"/>
<defs>
<filter id="filter0_d_85_140" x="0" y="0" width="245" height="190" filterUnits="userSpaceOnUse" color-interpolation-filters="sRGB">
<feFlood flood-opacity="0" result="BackgroundImageFix"/>
<feColorMatrix in="SourceAlpha" type="matrix" values="0 0 0 0 0 0 0 0 0 0 0 0 0 0 0 0 0 0 127 0" result="hardAlpha"/>
<feOffset/>
<feGaussianBlur stdDeviation="20"/>
<feComposite in2="hardAlpha" operator="out"/>
<feColorMatrix type="matrix" values="0 0 0 0 0.669469 0 0 0 0 0.862419 0 0 0 0 0.808822 0 0 0 1 0"/>
<feBlend mode="normal" in2="BackgroundImageFix" result="effect1_dropShadow_85_140"/>
<feBlend mode="normal" in="SourceGraphic" in2="effect1_dropShadow_85_140" result="shape"/>
</filter>
<linearGradient id="paint0_linear_85_140" x1="122.5" y1="40" x2="122.5" y2="150" gradientUnits="userSpaceOnUse">
<stop stop-color="white"/>
<stop offset="1" stop-color="#CEE0DB"/>
</linearGradient>
</defs>
</svg>
